<svg width="16" height="16" viewBox="0 0 16 16" fill="none" xmlns="http://www.w3.org/2000/svg">
<path d="M0.967142 4.43255C0.743886 4.49635 0.541155 4.61732 0.379009 4.78352C0.216864 4.94972 0.100924 5.15537 0.0426622 5.38014C-0.0155996 5.6049 -0.0141642 5.84098 0.0468265 6.06502C0.107817 6.28906 0.226249 6.49329 0.390404 6.6575L2.66535 8.92978V13.321H7.06124L9.35152 15.608C9.47436 15.7321 9.62057 15.8306 9.7817 15.8979C9.94283 15.9652 10.1157 15.9999 10.2903 16C10.4051 15.9998 10.5193 15.985 10.6304 15.956C10.855 15.8994 11.0608 15.7846 11.227 15.6232C11.3932 15.4618 11.514 15.2595 11.5771 15.0365L16.0004 0L0.967142 4.43255ZM1.33786 5.71471L12.6913 2.36763L4.00019 11.0447V8.37771L1.33786 5.71471ZM10.299 14.6652L7.61397 11.9875H4.94697L13.6367 3.30508L10.299 14.6652Z" fill="#7E7E7E"/>
</svg>
